<?xml version="1.0" encoding="UTF-8" standalone="no"?>
<!-- Uploaded to: SVG Repo, www.svgrepo.com, Generator: SVG Repo Mixer Tools -->

<svg
   fill="#000000"
   height="625"
   width="500"
   version="1.1"
   id="Capa_1"
   viewBox="0 0 230.34562 287.93203"
   xml:space="preserve"
   sodipodi:docname="map-pin-svgrepo-com.svg"
   inkscape:version="1.4 (86a8ad7, 2024-10-11)"
   inkscape:label="Pin 1"
   xmlns:inkscape="http://www.inkscape.org/namespaces/inkscape"
   xmlns:sodipodi="http://sodipodi.sourceforge.net/DTD/sodipodi-0.dtd"
   xmlns="http://www.w3.org/2000/svg"
   xmlns:svg="http://www.w3.org/2000/svg"><defs
   id="defs18" /><sodipodi:namedview
   id="namedview18"
   pagecolor="#ffffff"
   bordercolor="#111111"
   borderopacity="1"
   inkscape:showpageshadow="0"
   inkscape:pageopacity="0"
   inkscape:pagecheckerboard="1"
   inkscape:deskcolor="#d1d1d1"
   inkscape:zoom="1.51875"
   inkscape:cx="249.21811"
   inkscape:cy="285.4321"
   inkscape:window-width="2560"
   inkscape:window-height="1417"
   inkscape:window-x="-8"
   inkscape:window-y="-8"
   inkscape:window-maximized="1"
   inkscape:current-layer="Capa_1"><inkscape:page
     x="0"
     y="0"
     width="230.34563"
     height="287.93204"
     id="page46"
     margin="0"
     bleed="0"
     inkscape:export-filename="..\Documents\GitHub\GGears\pins\pin1.svg"
     inkscape:export-xdpi="96"
     inkscape:export-ydpi="96" /></sodipodi:namedview>
<g
   id="Pin_1"
   inkscape:label="Pin 1"
   style="display:inline"><path
     id="rect55"
     style="fill:#ab2b37;fill-opacity:1;stroke-width:0.460691"
     d="m 115.17281,33.536883 c -45.638796,0 -82.769659,37.120465 -82.769659,82.747167 0,51.41325 65.57388,136.33745 82.802049,157.75886 17.27712,-21.17028 82.73565,-104.87991 82.73637,-157.75886 0,-44.154893 -34.77394,-80.340536 -78.38049,-82.629295 -1.45086,-0.04832 -2.88944,-0.105982 -4.38827,-0.117872 z"
     sodipodi:nodetypes="cscccc" /><path
     style="display:inline;fill:#ffffff;fill-opacity:1;stroke:none;stroke-width:2.06686"
     d="m 108.13924,186.6259 c -13.199357,-1.51527 -26.118584,-7.05502 -35.962232,-15.42054 -2.83787,-2.41175 -3.201081,-2.88815 -3.239669,-4.24941 -0.05663,-1.99823 1.419044,-3.53783 3.381041,-3.5275 1.108042,0.006 1.659956,0.34117 4.546239,2.76233 7.392625,6.20131 16.761453,10.70129 26.596231,12.77455 5.22398,1.10126 14.65977,1.39242 19.9829,0.61658 12.23845,-1.78371 22.7094,-6.67674 31.81648,-14.86769 2.54317,-2.28733 3.30296,-2.6202 4.94551,-2.16666 2.29291,0.63309 3.07435,3.57611 1.45922,5.49556 -1.37305,1.6318 -6.51795,5.81017 -9.93773,8.07088 -12.68638,8.38647 -28.6231,12.22985 -43.58799,10.5119 z m -34.4804,-31.81998 c -5.590204,-0.77073 -10.256517,-3.06986 -14.375538,-7.08295 -7.85295,-7.65098 -9.894507,-19.7032 -5.018797,-29.62824 2.541368,-5.17326 6.056134,-8.78263 11.078323,-11.37647 4.195824,-2.16706 6.752337,-2.77436 11.679116,-2.77436 4.821707,0 7.436876,0.59878 11.504987,2.63426 1.339713,0.67033 2.51563,1.10507 2.613147,0.96611 0.09756,-0.13889 1.818704,-2.28872 3.82482,-4.77728 l 3.647504,-4.524643 -0.726918,-2.071843 -0.726934,-2.071851 -2.459431,-0.171116 c -2.918836,-0.203069 -3.414239,-0.393639 -4.007946,-1.541732 -0.5647,-1.092019 -0.565323,-1.629675 -0.0039,-2.71684 0.754011,-1.45813 1.619462,-1.610252 8.569594,-1.506317 l 6.342603,0.09485 0.83607,0.836733 c 1.77772,1.77919 0.37351,4.8507 -2.2176,4.8507 -1.01895,0 -1.06612,0.04558 -0.87494,0.845437 0.1112,0.464982 0.27287,0.969541 0.35938,1.121234 0.13394,0.234611 32.95419,-0.01385 33.1916,-0.251178 0.043,-0.04301 -0.52399,-1.518701 -1.25992,-3.279386 L 134.296,89.179785 129.10005,89.02607 c -2.85776,-0.08454 -5.36986,-0.266246 -5.58241,-0.403783 -0.21256,-0.137529 -0.60179,-0.666418 -0.86492,-1.175294 -0.60224,-1.164583 -0.35239,-2.41073 0.67725,-3.378039 0.76835,-0.721831 0.85384,-0.730325 7.35535,-0.730325 h 6.57798 l 0.73039,0.768579 c 0.42486,0.447092 2.38878,4.915073 4.69527,10.681884 2.85187,7.130438 4.08122,9.869998 4.37921,9.759008 1.33817,-0.4984 5.19554,-0.81988 7.88628,-0.65726 3.98516,0.24087 6.06053,0.80572 9.90829,2.69671 5.08263,2.49786 9.04212,6.56844 11.50838,11.83132 1.84502,3.93715 2.50708,7.41956 2.30231,12.11014 -0.29384,6.73115 -2.23644,11.527 -6.61024,16.31925 -4.82468,5.28629 -11.0688,8.03449 -18.33844,8.07127 -4.31198,0.0219 -7.44335,-0.66153 -11.11462,-2.42551 -6.74849,-3.24251 -11.37537,-8.73823 -13.4846,-16.01671 -2.85815,-9.86287 0.51461,-20.61324 8.47308,-27.0072 1.26276,-1.01452 2.61711,-2.05319 3.00967,-2.30818 l 0.71374,-0.4636 -0.58326,-1.48491 -0.58329,-1.48491 -13.4587,14.14076 c -7.40227,7.77743 -13.75651,14.22069 -14.12055,14.31835 -0.36401,0.0976 -2.8237,0.1794 -5.46597,0.18167 l -4.80409,0.004 -0.66507,2.87808 c -2.157321,9.33582 -9.190751,16.61514 -18.306611,18.94657 -2.724595,0.69684 -7.056616,0.9689 -9.67642,0.60769 z m 7.974547,-6.00239 c 3.965779,-0.93191 7.913536,-3.39603 10.561381,-6.59222 1.85135,-2.23475 4.172178,-7.46249 4.191562,-9.44167 0.0023,-0.28266 -2.486919,-0.39388 -10.322158,-0.46113 l -10.325828,-0.0887 -0.741627,-0.86258 c -0.880417,-1.02398 -0.970202,-2.51201 -0.217452,-3.60358 0.288305,-0.41809 3.060159,-3.90913 6.159678,-7.7579 3.099519,-3.84878 5.714758,-7.20436 5.811645,-7.45682 0.210825,-0.54942 -2.149012,-1.71213 -4.951234,-2.43951 -2.345214,-0.6088 -7.179094,-0.61378 -9.554822,-0.0104 -6.355165,1.61546 -11.906282,6.80298 -13.97657,13.06112 -0.941904,2.8472 -1.158306,7.51354 -0.48813,10.5258 0.757814,3.40623 2.534382,6.84003 4.781938,9.24268 2.796,2.98895 6.821992,5.35124 10.309892,6.04946 2.076876,0.41575 6.657088,0.32944 8.761725,-0.16514 z m 76.530213,-0.0227 c 8.72275,-2.16755 15.10136,-10.36945 15.07834,-19.3884 -0.0211,-8.26612 -5.45267,-15.97402 -13.22106,-18.76188 -1.95345,-0.70104 -2.89917,-0.84037 -6.29535,-0.92751 -2.19812,-0.0564 -4.19183,0.0286 -4.43046,0.1885 -0.35464,0.23792 0.24893,1.98619 3.30486,9.57294 2.0563,5.10502 3.73875,9.55149 3.73875,9.88105 0,2.41806 -2.86472,3.77463 -4.65592,2.20484 -0.2781,-0.24373 -2.20499,-4.65435 -4.28199,-9.80138 -2.07701,-5.14703 -3.905,-9.35824 -4.06222,-9.35824 -0.15729,0 -1.17362,0.7064 -2.25866,1.56979 -1.981,1.57633 -4.0703,4.19905 -5.32046,6.67882 -1.76018,3.49139 -2.36425,9.41562 -1.38413,13.57419 1.27649,5.41606 5.18138,10.43359 10.12075,13.00451 3.76368,1.95901 9.45444,2.60968 13.66755,1.56273 z M 96.38633,125.99449 c -0.01447,-2.06042 -2.055135,-6.84102 -3.765868,-8.82005 l -1.030305,-1.1919 -1.967839,2.43127 c -1.082303,1.33717 -2.976722,3.63067 -4.209809,5.09666 -1.233087,1.46595 -2.241979,2.74563 -2.241979,2.8437 0,0.098 2.974373,0.17837 6.60972,0.17837 6.091417,0 6.609456,-0.0422 6.60608,-0.53801 z m 11.37854,0.14841 c 0,-0.29856 -6.16396,-19.08467 -6.91533,-21.07604 -0.14199,-0.37654 -5.381842,5.87423 -5.381842,6.42025 0,0.12691 0.476635,0.80103 1.059179,1.49831 2.523843,3.02081 4.418243,6.9876 5.242273,10.97705 0.2541,1.23012 0.46198,2.31161 0.46198,2.40327 0,0.0918 1.24509,0.1668 2.76688,0.1668 2.02837,0 2.76686,-0.10397 2.76686,-0.38954 z m 16.12918,-13.44477 10.35569,-10.91375 -14.05912,-0.08 c -7.7325,-0.044 -14.13726,-0.002 -14.23274,0.0936 -0.24837,0.24837 7.042,22.01816 7.33615,21.90655 0.13435,-0.051 4.90439,-5.00392 10.60002,-11.00646 z M 54.887045,97.242844 C 54.464331,97.032641 53.858537,96.329455 53.540814,95.680203 52.830752,94.229197 53.057607,93.289541 55.109997,89.180516 62.002009,75.382214 72.640941,64.765503 86.0911,58.264168 92.51435,55.1594 97.719828,53.48663 104.85749,52.233623 c 4.33692,-0.761338 16.57556,-0.756384 20.73826,0.0085 16.03506,2.94599 29.46474,10.329907 39.70876,21.832695 5.0153,5.631588 11.32448,15.933561 11.32448,18.491256 0,1.647697 -1.61786,3.223537 -3.30952,3.223537 -1.7651,0 -2.64998,-0.865116 -4.35777,-4.260369 C 165.98285,85.606898 162.06112,80.319187 157.0648,75.488505 147.8501,66.579299 137.55253,61.369625 124.51975,59.023562 119.884,58.18907 110.1073,58.258063 105.16712,59.16012 85.569196,62.738677 70.088932,74.492245 61.135127,92.591892 c -1.541212,3.115481 -2.273793,4.274689 -2.909036,4.603193 -1.04002,0.537818 -2.316884,0.556105 -3.339046,0.04784 z"
     id="path18"
     sodipodi:nodetypes="ssscsssssssscssssssscccsscscssscsscssssscssssssssssssscccscscsscccscscssssscssssccsssscssssssssssssscsssssssssssssssscsssssssssscssssssssss" /><path
     id="path1-4-8-7"
     style="fill:#000000;stroke-width:5.00991"
     d="m 104.78566,-7e-6 c -6.92962,0 -12.3809,5.695216 -12.3809,12.622993 v 12.934403 c -8.69608,2.18203 -16.90504,5.59163 -24.44964,10.02032 l -9.13639,-9.08413 c -4.73999,-4.74876 -13.03725,-4.74328 -17.79228,-0.004 l -14.62096,14.61188 c -2.34494,2.33931 -3.68293,5.57538 -3.68293,8.88147 0,3.351181 1.29821,6.506941 3.67322,8.876301 l 8.77827,8.81609 c -1.57115,2.58037 -2.96868,5.27101 -4.2839,8.00939 -0.053,0.10953 -0.10219,0.22108 -0.15478,0.33084 -0.89016,1.87259 -1.72017,3.77666 -2.48421,5.71812 -0.4346,1.08885 -0.85747,2.18312 -1.25182,3.29154 -0.18962,0.5431 -0.37472,1.08745 -0.55435,1.63542 -0.63135,1.88494 -1.21824,3.78933 -1.73039,5.72525 H 12.53122 C 5.5966,92.38588 8e-5,97.95627 8e-5,104.86901 v 20.66282 c 0,6.93278 5.59652,12.37761 12.53114,12.37761 H 24.4575 c 2.04182,8.58425 5.09035,17.53211 8.8657,26.61208 l -6.93779,6.97996 c -2.375,2.36937 -3.67774,5.54018 -3.67774,8.89637 0,3.35619 1.30775,6.52701 3.67774,8.89637 l 14.63068,14.62227 c 2.37501,2.36937 5.52658,3.6716 8.87865,3.6716 1.7226,0 59.03657,75.91539 61.14872,78.4235 1.01986,1.21243 2.52233,1.91374 4.10645,1.92093 h 0.0226 c 1.57549,0 3.07436,-0.68865 4.09998,-1.88597 2.09303,-2.44336 59.22908,-78.46817 61.05741,-78.46817 3.35708,0 6.51901,-1.30724 8.88901,-3.6716 l 14.63067,-14.61255 c 2.36999,-2.36436 3.66772,-5.52512 3.67774,-8.87629 0,-3.3562 -1.31275,-6.50711 -3.67774,-8.88149 l -6.64247,-6.71647 c 3.75795,-9.14554 6.78138,-18.19071 8.78993,-26.91053 h 11.72163 c 6.92961,0 12.62699,-5.44483 12.62699,-12.37761 v -20.66282 c 0.005,-6.91274 -5.68701,-12.48313 -12.61663,-12.48313 h -12.09854 c -1.71353,-6.47686 -4.11864,-12.67102 -7.10939,-18.52046 -0.12417,-0.24453 -0.24865,-0.48834 -0.37496,-0.7316 -0.95795,-1.83357 -1.95539,-3.64345 -3.02885,-5.40347 -0.011,-0.018 -0.0201,-0.0371 -0.0311,-0.055 l 8.77827,-8.79602 c 2.37,-2.36937 3.6732,-5.53047 3.6732,-8.886661 0,-3.35118 -1.31322,-6.51712 -3.6732,-8.88148 l -14.63058,-14.6119 c -4.745,-4.74876 -13.03752,-4.74393 -17.76248,-0.005 l -9.11956,9.06211 c -7.53545,-4.41856 -15.73283,-7.82126 -24.41597,-9.99958 V 12.622986 C 137.93587,5.695209 132.3991,-7e-6 125.46949,-7e-6 Z m 10.38693,33.537006 c 1.49883,0.0119 2.9373,0.0695 4.38816,0.11783 43.60655,2.28876 78.38082,38.474331 78.38082,82.629221 -7.2e-4,52.87895 -65.45949,136.58896 -82.73661,157.75924 C 97.97679,252.62188 32.4036,167.6973 32.4036,116.28405 c 0,-45.6267 37.13019,-82.747051 82.76899,-82.747051 z"
     sodipodi:nodetypes="sscccccsccccccccsssscccsccsccsssccccccsscscccsccscccccsssccccsc" /></g>
</svg>
